name analog
datacolumns 19
datarows 36
range 0.6285000000000001 0.646
endheader
time	ground_force_vx	ground_force_vy	ground_force_vz	ground_force_px	ground_force_py	ground_force_pz	l_ground_force_vx	l_ground_force_vy	l_ground_force_vz	l_ground_force_px	l_ground_force_py	l_ground_force_pz	ground_torque_x	ground_torque_y	ground_torque_z	l_ground_torque_x	l_ground_torque_y	l_ground_torque_z
0.6285000000000001	-0.0	-0.0	-0.0	-10.492110252380373	117.02345275878906	-414.9864501953125	7.0426201820373535	-114.5875473022461	-355.43634033203125	-0.0	-0.0	-0.0	-0.0	-0.0	-0.0	95987.1484375	2774.359619140625	-366.8399658203125
0.629	-0.0	-0.0	-0.0	-10.759705543518066	116.84996032714844	-415.1837768554688	6.771623611450195	-114.81819152832033	-356.3480224609375	-0.0	-0.0	-0.0	-0.0	-0.0	-0.0	95828.265625	2694.911865234375	-553.3509521484375
0.6295000000000001	-0.0	-0.0	-0.0	-10.611637115478516	117.04339599609376	-417.2432861328125	6.761651515960693	-114.39142608642578	-355.8627624511719	-0.0	-0.0	-0.0	-0.0	-0.0	-0.0	95859.3515625	2571.353759765625	-452.67236328125
0.63	-0.0	-0.0	-0.0	-10.701029777526855	117.19542694091795	-416.3385620117188	6.835272789001465	-114.7104034423828	-356.4838256835937	-0.0	-0.0	-0.0	-0.0	-0.0	-0.0	96119.171875	2737.2255859375	-582.8705444335938
0.6305000000000001	-0.0	-0.0	-0.0	-10.585225105285645	117.17163848876952	-417.4586791992188	6.614335536956787	-113.96509552001952	-356.228515625	-0.0	-0.0	-0.0	-0.0	-0.0	-0.0	96008.390625	2421.30419921875	-599.4337158203125
0.631	-0.0	-0.0	-0.0	-10.716909408569336	116.91971588134766	-416.1688537597656	6.564598083496094	-113.75833129882812	-355.8619079589844	-0.0	-0.0	-0.0	-0.0	-0.0	-0.0	96172.0625	2537.595703125	-598.0289916992188
0.6315000000000001	-0.0	-0.0	-0.0	-10.755836486816406	116.88487243652344	-418.0267028808594	6.132380485534668	-113.84664916992188	-356.3315734863281	-0.0	-0.0	-0.0	-0.0	-0.0	-0.0	96199.9609375	2632.7138671875	-629.434326171875
0.632	-0.0	-0.0	-0.0	-10.708767890930176	117.33406829833984	-419.4392700195313	5.908902645111084	-113.0709457397461	-356.9846496582031	-0.0	-0.0	-0.0	-0.0	-0.0	-0.0	96077.1640625	2463.570068359375	-688.7364501953125
0.6325000000000001	-0.0	-0.0	-0.0	-10.22418975830078	117.0981903076172	-420.3600463867188	6.263710021972656	-112.99803924560548	-355.08721923828125	-0.0	-0.0	-0.0	-0.0	-0.0	-0.0	95885.3671875	2449.785888671875	-664.0152587890625
0.633	-0.0	-0.0	-0.0	-9.899219512939451	117.10140991210938	-419.6534118652344	5.9088311195373535	-112.85607147216795	-353.9644775390625	-0.0	-0.0	-0.0	-0.0	-0.0	-0.0	95907.8984375	2326.052734375	-849.8184814453125
0.6335000000000001	-0.0	-0.0	-0.0	-10.418601989746094	117.2956085205078	-419.363525390625	5.816801071166992	-112.97914123535156	-355.43634033203125	-0.0	-0.0	-0.0	-0.0	-0.0	-0.0	95953.3046875	2447.953369140625	-742.8687133789062
0.634	-0.0	-0.0	-0.0	-9.97262191772461	117.0822525024414	-421.6328430175781	5.943622589111328	-112.5565414428711	-352.63092041015625	-0.0	-0.0	-0.0	-0.0	-0.0	-0.0	95873.7421875	2418.943115234375	-830.6017456054688
0.6345000000000001	-0.0	-0.0	-0.0	-9.740224838256836	117.24420928955078	-423.2694091796875	5.838924884796143	-112.20329284667967	-353.9768371582031	-0.0	-0.0	-0.0	-0.0	-0.0	-0.0	95645.3046875	2378.23193359375	-920.5922241210938
0.635	-0.0	-0.0	-0.0	-9.632311820983888	117.5442123413086	-422.5425720214844	5.427453517913818	-112.27288818359376	-354.5897216796875	-0.0	-0.0	-0.0	-0.0	-0.0	-0.0	95833.609375	2322.218994140625	-831.88623046875
0.6355000000000001	-0.0	-0.0	-0.0	-9.813156127929688	117.4177017211914	-424.2255554199219	5.784968376159668	-111.9570770263672	-353.69061279296875	-0.0	-0.0	-0.0	-0.0	-0.0	-0.0	95591.484375	2119.649169921875	-796.4449462890625
0.636	-0.0	-0.0	-0.0	-9.078742027282717	117.31220245361328	-425.0890197753906	6.158437728881836	-111.63861083984376	-353.4150390625	-0.0	-0.0	-0.0	-0.0	-0.0	-0.0	95679.6796875	2327.03076171875	-717.9552612304688
0.6365000000000001	-0.0	-0.0	-0.0	-9.153374671936035	116.93721771240234	-424.4486999511719	6.26342248916626	-111.7269287109375	-353.25946044921875	-0.0	-0.0	-0.0	-0.0	-0.0	-0.0	95712.171875	2100.083740234375	-771.7528686523438
0.637	-0.0	-0.0	-0.0	-9.045605659484863	117.4906768798828	-424.4556884765625	6.317017555236816	-111.79879760742188	-353.4144897460937	-0.0	-0.0	-0.0	-0.0	-0.0	-0.0	95808.28125	2138.231689453125	-634.4419555664062
0.6375000000000001	-0.0	-0.0	-0.0	-8.704205513000488	117.22339630126952	-423.81591796875	6.797464847564697	-112.09862518310548	-354.3816223144531	-0.0	-0.0	-0.0	-0.0	-0.0	-0.0	96129.4140625	2058.348388671875	-581.0753784179688
0.638	-0.0	-0.0	-0.0	-8.831840515136719	117.02821350097656	-424.8080139160156	6.706869125366211	-112.06189727783205	-356.0622253417969	-0.0	-0.0	-0.0	-0.0	-0.0	-0.0	96128.46875	1811.3345947265625	-456.9002990722656
0.6385000000000001	-0.0	-0.0	-0.0	-8.08154582977295	117.11735534667967	-426.1524353027344	6.954627990722656	-112.41673278808594	-356.622314453125	-0.0	-0.0	-0.0	-0.0	-0.0	-0.0	96649.234375	1766.95703125	-307.9848327636719
0.639	-0.0	-0.0	-0.0	-8.368534088134766	117.36750793457033	-427.0628662109375	7.4334397315979	-112.2218017578125	-357.1101989746094	-0.0	-0.0	-0.0	-0.0	-0.0	-0.0	96718.40625	1595.897216796875	-224.75791931152344
0.6395000000000001	-0.0	-0.0	-0.0	-8.13631820678711	117.2593231201172	-427.4164733886719	7.43238353729248	-112.5750503540039	-357.1776733398437	-0.0	-0.0	-0.0	-0.0	-0.0	-0.0	96829.359375	1595.04443359375	-207.3761749267578
0.64	-0.0	-0.0	-0.0	-7.617838382720947	117.29622650146484	-427.3501586914063	7.913381099700928	-112.06312561035156	-358.3009033203125	-0.0	-0.0	-0.0	-0.0	-0.0	-0.0	96855.1953125	1459.3408203125	-171.47311401367188
0.6405	-0.0	-0.0	-0.0	-7.404908657073975	117.29605102539062	-426.1472778320313	8.304252624511719	-112.6101531982422	-358.8568420410156	-0.0	-0.0	-0.0	-0.0	-0.0	-0.0	97163.9296875	1410.582763671875	-10.88280963897705
0.641	-0.0	-0.0	-0.0	-7.243739604949951	117.36707305908205	-428.1251525878906	8.569580078125	-112.75216674804688	-358.64483642578125	-0.0	-0.0	-0.0	-0.0	-0.0	-0.0	97422.171875	1391.1578369140625	42.79539108276367
0.6415	-0.0	-0.0	-0.0	-7.261794567108154	116.90345001220705	-427.1357727050781	8.42752456665039	-113.08700561523438	-358.22955322265625	-0.0	-0.0	-0.0	-0.0	-0.0	-0.0	97399.9921875	1359.9344482421875	107.7640151977539
0.642	-0.0	-0.0	-0.0	-7.404472351074219	117.13523864746094	-426.50042724609375	8.53406810760498	-113.1928939819336	-359.2077331542969	-0.0	-0.0	-0.0	-0.0	-0.0	-0.0	97486.3671875	1307.6817626953125	131.52584838867188
0.6425	-0.0	-0.0	-0.0	-6.940978527069092	116.81452941894533	-426.8553161621094	8.800079345703125	-113.35204315185548	-358.7882385253906	-0.0	-0.0	-0.0	-0.0	-0.0	-0.0	97309.859375	1147.814208984375	202.9172821044922
0.643	-0.0	-0.0	-0.0	-7.243706226348877	116.93955993652344	-425.725341796875	9.190542221069336	-113.31672668457033	-359.5565795898437	-0.0	-0.0	-0.0	-0.0	-0.0	-0.0	97427.2734375	913.6728515625	363.34271240234375
0.6435	-0.0	-0.0	-0.0	-6.672555923461914	117.01065063476562	-426.5021362304688	9.225921630859377	-113.5638427734375	-358.9266357421875	-0.0	-0.0	-0.0	-0.0	-0.0	-0.0	97361.3671875	1194.5970458984375	404.8992919921875
0.644	-0.0	-0.0	-0.0	-7.206883907318115	117.13401794433594	-426.284912109375	9.385796546936035	-113.36962127685548	-358.4386901855469	-0.0	-0.0	-0.0	-0.0	-0.0	-0.0	97257.46875	900.579345703125	452.50390625
0.6445	-0.0	-0.0	-0.0	-6.725664138793945	116.81510925292967	-424.1000671386719	9.544476509094238	-113.5107650756836	-358.2269287109375	-0.0	-0.0	-0.0	-0.0	-0.0	-0.0	97305.03125	909.1810913085938	423.1408386230469
0.645	-0.0	-0.0	-0.0	-6.851844310760498	116.5825653076172	-424.3800659179688	9.368539810180664	-113.36954498291016	-358.5787353515625	-0.0	-0.0	-0.0	-0.0	-0.0	-0.0	97324.0	784.1944580078125	458.5951843261719
0.6455	-0.0	-0.0	-0.0	-6.922461986541748	116.90316009521484	-423.8898315429688	9.54507541656494	-113.65275573730467	-359.20880126953125	-0.0	-0.0	-0.0	-0.0	-0.0	-0.0	97419.8125	1037.612548828125	535.3987426757812
0.646	-0.0	-0.0	-0.0	-6.975641250610352	116.5106430053711	-422.8245544433594	9.598024368286133	-113.56450653076172	-359.90264892578125	-0.0	-0.0	-0.0	-0.0	-0.0	-0.0	97467.8125	761.1256713867188	635.9572143554688
